<svg width="1440" height="180" viewBox="0 0 1440 180" fill="none" xmlns="http://www.w3.org/2000/svg">
<path d="M922.5 85.927C725.52 2.71305 47 203.927 -57 294.427C-73.649 308.915 251 258.427 290 258.427L1480.5 314.427C1463.33 280.594 1167.5 189.427 922.5 85.927Z" fill="url(#paint0_linear_17_7)" fill-opacity="0.8"/>
<path d="M131.5 16.4023C-39.7 -46.7977 -94 86.9272 -123 174.902C-138.831 222.927 -130 228.427 -166 257.902L1685.5 257.902C1610 180.236 1503.5 23.2022 1407.5 16.4022C1287.5 7.90219 1083.5 56.427 865.5 158.927C647.5 261.427 345.5 95.4023 131.5 16.4023Z" fill="url(#paint1_linear_17_7)"/>
<defs>
<linearGradient id="paint0_linear_17_7" x1="711.441" y1="66.1917" x2="711.441" y2="314.427" gradientUnits="userSpaceOnUse">
<stop stop-color="#FFA800"/>
<stop offset="1" stop-color="#EEE400" stop-opacity="0.04"/>
</linearGradient>
<linearGradient id="paint1_linear_17_7" x1="730" y1="15.4506" x2="730" y2="257.902" gradientUnits="userSpaceOnUse">
<stop stop-color="#0500FF" stop-opacity="0.69"/>
<stop offset="1" stop-color="#FA00FF"/>
</linearGradient>
</defs>
</svg>
